<?xml version="1.0" encoding="UTF-8" standalone="no"?>
<!-- Created with Inkscape (http://www.inkscape.org/) -->
<svg
   xmlns:dc="http://purl.org/dc/elements/1.1/"
   xmlns:cc="http://creativecommons.org/ns#"
   xmlns:rdf="http://www.w3.org/1999/02/22-rdf-syntax-ns#"
   xmlns:svg="http://www.w3.org/2000/svg"
   xmlns="http://www.w3.org/2000/svg"
   xmlns:sodipodi="http://sodipodi.sourceforge.net/DTD/sodipodi-0.dtd"
   xmlns:inkscape="http://www.inkscape.org/namespaces/inkscape"
   version="1.0"
   x="0.0000000"
   y="0.0000000"
   width="366.05777"
   height="347.94235"
   id="svg2807"
   sodipodi:version="0.32"
   inkscape:version="0.46"
   sodipodi:docname="simple-record-player.svg"
   inkscape:output_extension="org.inkscape.output.svg.inkscape">
  <metadata
     id="metadata25">
    <rdf:RDF>
      <cc:Work
         rdf:about="">
        <dc:format>image/svg+xml</dc:format>
        <dc:type
           rdf:resource="http://purl.org/dc/dcmitype/StillImage" />
        <dc:title>Simple Turntable</dc:title>
        <dc:creator>
          <cc:Agent>
            <dc:title>AJ Ashton</dc:title>
          </cc:Agent>
        </dc:creator>
        <dc:subject>
          <rdf:Bag>
            <rdf:li>record player</rdf:li>
            <rdf:li>turntable</rdf:li>
            <rdf:li>LP</rdf:li>
            <rdf:li>vinyl</rdf:li>
            <rdf:li>music</rdf:li>
            <rdf:li>DJ</rdf:li>
            <rdf:li>stereo</rdf:li>
          </rdf:Bag>
        </dc:subject>
        <cc:license
           rdf:resource="http://creativecommons.org/licenses/publicdomain/" />
      </cc:Work>
      <cc:License
         rdf:about="http://creativecommons.org/licenses/publicdomain/">
        <cc:permits
           rdf:resource="http://creativecommons.org/ns#Reproduction" />
        <cc:permits
           rdf:resource="http://creativecommons.org/ns#Distribution" />
        <cc:permits
           rdf:resource="http://creativecommons.org/ns#DerivativeWorks" />
      </cc:License>
    </rdf:RDF>
  </metadata>
  <sodipodi:namedview
     inkscape:window-height="658"
     inkscape:window-width="640"
     inkscape:pageshadow="2"
     inkscape:pageopacity="0.0"
     guidetolerance="10.0"
     gridtolerance="10.0"
     objecttolerance="10.0"
     borderopacity="1.0"
     bordercolor="#666666"
     pagecolor="#ffffff"
     id="base"
     showgrid="false"
     inkscape:zoom="0.62133333"
     inkscape:cx="198.11837"
     inkscape:cy="141.79632"
     inkscape:window-x="413"
     inkscape:window-y="171"
     inkscape:current-layer="svg2807" />
  <defs
     id="defs3">
    <inkscape:perspective
       sodipodi:type="inkscape:persp3d"
       inkscape:vp_x="0 : 187.5 : 1"
       inkscape:vp_y="0 : 1000 : 0"
       inkscape:vp_z="375 : 187.5 : 1"
       inkscape:persp3d-origin="187.5 : 125 : 1"
       id="perspective27" />
  </defs>
  <g
     id="layer1"
     transform="translate(-4.4711151,-13.52882)">
    <g
       transform="translate(5.197525e-5,-97.49992)"
       id="g2880">
      <rect
         width="362.30777"
         height="344.19235"
         rx="34.549595"
         ry="34.549595"
         x="6.3460631"
         y="112.90374"
         style="fill:#ffffff;fill-opacity:1;stroke:#000000;stroke-width:3.75;stroke-linecap:round;stroke-linejoin:round;stroke-miterlimit:4;stroke-opacity:1"
         id="rect2850" />
      <path
         d="M 311.48581,301.60294 C 311.49739,377.22458 245.8672,438.53378 164.90425,438.53378 C 83.941302,438.53378 18.31111,377.22458 18.322693,301.60294 C 18.31111,225.9813 83.941302,164.6721 164.90425,164.6721 C 245.8672,164.6721 311.49739,225.9813 311.48581,301.60294 L 311.48581,301.60294 z"
         transform="matrix(0.966918,0,0,1.035213,4.062799e-6,-22.85303)"
         style="fill:#000000;fill-opacity:1;stroke:none;stroke-width:3.75;stroke-linecap:round;stroke-linejoin:round;stroke-miterlimit:4;stroke-opacity:1"
         id="path2817" />
      <path
         d="M 142.20775,436.86301 C 104.78225,431.38432 71.080938,412.58499 48.169767,384.40656 L 164.90425,301.60294 L 142.20775,436.86301 z"
         transform="matrix(0.919778,0,0,0.984743,7.773665,-7.631112)"
         style="fill:#969696;fill-opacity:1;stroke:none;stroke-width:3.75;stroke-linecap:round;stroke-linejoin:round;stroke-miterlimit:4;stroke-opacity:1"
         id="path2849" />
      <path
         d="M 175.74458,165.06659 C 211.84114,167.56682 245.6709,182.45294 270.71888,206.85817 L 164.90425,301.60294 L 175.74458,165.06659 z"
         transform="matrix(0.919778,0,0,0.984743,7.773665,-7.631112)"
         style="fill:#969696;fill-opacity:1;stroke:none;stroke-width:3.75;stroke-linecap:round;stroke-linejoin:round;stroke-miterlimit:4;stroke-opacity:1"
         id="path2847" />
      <path
         d="M 311.48581,301.60294 C 311.49739,377.22458 245.8672,438.53378 164.90425,438.53378 C 83.941302,438.53378 18.31111,377.22458 18.322693,301.60294 C 18.31111,225.9813 83.941302,164.6721 164.90425,164.6721 C 245.8672,164.6721 311.49739,225.9813 311.48581,301.60294 L 311.48581,301.60294 z"
         transform="matrix(0.346306,0,0,0.370767,102.3415,177.5459)"
         style="fill:#ffffff;fill-opacity:1;stroke:#000000;stroke-width:13.95369053;stroke-linecap:round;stroke-linejoin:round;stroke-miterlimit:4;stroke-opacity:1"
         id="path2818" />
      <path
         d="M 311.48581,301.60294 C 311.49739,377.22458 245.8672,438.53378 164.90425,438.53378 C 83.941302,438.53378 18.31111,377.22458 18.322693,301.60294 C 18.31111,225.9813 83.941302,164.6721 164.90425,164.6721 C 245.8672,164.6721 311.49739,225.9813 311.48581,301.60294 L 311.48581,301.60294 z"
         transform="matrix(5.025108e-2,0,0,5.380039e-2,151.1623,273.1439)"
         style="fill:#000000;fill-opacity:1;stroke:none;stroke-width:3.75;stroke-linecap:round;stroke-linejoin:round;stroke-miterlimit:4;stroke-opacity:1"
         id="path2819" />
      <path
         d="M 126.51575,269.15354 L 155.88639,249.33267"
         style="fill:none;fill-opacity:0.75;fill-rule:evenodd;stroke:#000000;stroke-width:4.99999905;stroke-linecap:butt;stroke-linejoin:miter;stroke-miterlimit:4;stroke-opacity:1"
         id="path2821" />
      <path
         d="M 121.74086,293.74929 L 180.48216,254.10755"
         style="fill:none;fill-opacity:0.75;fill-rule:evenodd;stroke:#000000;stroke-width:4.99999905;stroke-linecap:butt;stroke-linejoin:miter;stroke-miterlimit:4;stroke-opacity:1"
         id="path2822" />
      <path
         d="M 156.24705,313.20951 L 185.6177,293.38864"
         style="fill:none;fill-opacity:0.75;fill-rule:evenodd;stroke:#000000;stroke-width:4.99999905;stroke-linecap:butt;stroke-linejoin:miter;stroke-miterlimit:4;stroke-opacity:1"
         id="path2823" />
      <path
         d="M 333.25,184.9375 L 251.03125,324.875 L 194.03125,349.625 L 204.3125,371.40625 L 220.4375,363.0625 L 236.09375,389.375 L 244,385.78125 L 235.5625,355.25 L 264.5,340.28125 L 352.46875,197.375 L 333.25,184.9375 z"
         transform="matrix(0.99372,-0.111898,0.111898,0.99372,-35.4668,21.58997)"
         style="fill:#969696;fill-opacity:1;fill-rule:evenodd;stroke:#ffffff;stroke-width:3.75;stroke-linecap:round;stroke-linejoin:round;stroke-miterlimit:4;stroke-opacity:1"
         id="path2842" />
      <g
         transform="matrix(0.999938,-1.1145e-2,1.1145e-2,0.999938,-16.32872,-10.33222)"
         style="stroke:#000000;stroke-opacity:1"
         id="g2851">
        <path
           d="M 332.80715,177.55431 L 302.29921,243.7405 L 310.20842,276.49649 L 353.1518,187.97666 L 332.80715,177.55431 z"
           style="fill:#969696;fill-opacity:1;fill-rule:evenodd;stroke-width:3.75000024;stroke-linecap:round;stroke-linejoin:round;stroke-miterlimit:4"
           id="path2852" />
        <path
           d="M 305.13327,241.85788 L 300.836,252.16101 L 306.09897,281.05518 L 311.44699,269.40471 L 305.13327,241.85788 z"
           style="fill:#969696;fill-opacity:1;fill-rule:evenodd;stroke:none;stroke-width:3.75000024;stroke-linecap:round;stroke-linejoin:round;stroke-miterlimit:4"
           id="path2854" />
      </g>
      <rect
         width="47.505859"
         height="61.901619"
         rx="12.00003"
         ry="12.00003"
         x="-36.627781"
         y="330.94437"
         transform="matrix(0.41232,-0.911039,0.911039,0.41232,0,0)"
         style="fill:#969696;fill-opacity:1;stroke:#000000;stroke-width:3.75001287;stroke-linecap:round;stroke-linejoin:round;stroke-miterlimit:4;stroke-opacity:1"
         id="rect2864" />
      <path
         d="M 291.5123,400.18524 C 291.51756,408.53699 284.7486,415.31022 276.39685,415.31022 C 268.0451,415.31022 261.27614,408.53699 261.2814,400.18524 C 261.27614,391.83349 268.0451,385.06026 276.39685,385.06026 C 284.7486,385.06026 291.51756,391.83349 291.5123,400.18524 L 291.5123,400.18524 z"
         transform="matrix(1.045102,0,0,1.045107,-2.858109,5.32584)"
         style="fill:#969696;fill-opacity:1;stroke:#000000;stroke-width:3.58815908;stroke-linecap:round;stroke-linejoin:round;stroke-miterlimit:4;stroke-opacity:1"
         id="path2876" />
      <path
         d="M 291.5123,400.18524 C 291.51756,408.53699 284.7486,415.31022 276.39685,415.31022 C 268.0451,415.31022 261.27614,408.53699 261.2814,400.18524 C 261.27614,391.83349 268.0451,385.06026 276.39685,385.06026 C 284.7486,385.06026 291.51756,391.83349 291.5123,400.18524 L 291.5123,400.18524 z"
         transform="matrix(1.042735,0,0,1,43.40554,22.69101)"
         style="fill:#969696;fill-opacity:1;stroke:#000000;stroke-width:3.67235208;stroke-linecap:round;stroke-linejoin:round;stroke-miterlimit:4;stroke-opacity:1"
         id="path2877" />
      <rect
         width="14.539161"
         height="67.284477"
         x="328.92249"
         y="308.87747"
         style="fill:#969696;fill-opacity:1;stroke:#000000;stroke-width:3.74999976;stroke-linecap:round;stroke-linejoin:round;stroke-miterlimit:4;stroke-opacity:1"
         id="rect2878" />
      <path
         d="M 291.5123,400.18524 C 291.51756,408.53699 284.7486,415.31022 276.39685,415.31022 C 268.0451,415.31022 261.27614,408.53699 261.2814,400.18524 C 261.27614,391.83349 268.0451,385.06026 276.39685,385.06026 C 284.7486,385.06026 291.51756,391.83349 291.5123,400.18524 L 291.5123,400.18524 z"
         transform="matrix(0.823203,0,0,0.789465,109.1637,9.597093)"
         style="fill:#000000;fill-opacity:1;stroke:#000000;stroke-width:4.65169907;stroke-linecap:round;stroke-linejoin:round;stroke-miterlimit:4;stroke-opacity:1"
         id="path2879" />
    </g>
  </g>
</svg>
